Patient4_TMGait_0pt7_02_right_37_EMG.mot
version=1
nRows=33
nColumns=33
inDegrees=no
endheader
time	1LAddLong	2LGlutMax	3LGlutMed	4LIliopsoas	5LSemiMemb	6LBicFemLong	7LRecFem	8LVastMed	9LVastLat	10LGasMed	11LTibAnt	12lTibPost	13LPeroneusLong	14LSol	15LExtDigLong	16LFlexDigLong	17RAddLong	18RGlutMax	19RGlutMed	20RIliopsoas	21RSemiMemb	22RBicFemLong	23RRecFem	24RVastMed	25RVastLat	26RGasMed	27RTibAnt	28RTibPost	29RPeroneusLong	30RSol	31RExtDigLong	32RFlexDigLong
43	-0.00824	0.10056	0.032959	0.008698	0.032196	0.10803	0.11627	0.014191	-0.068054	-0.18829	0.10956	0.008087	0.095825	-0.69961	0.17471	0.12833	-0.000458	-0.041046	-0.29556	-0.032349	0.11536	0.057068	0.066528	-0.059662	0.003052	-0.021515	0.19241	-0.013733	0.58929	0.052795	0.003815	-0.010071
43.001	-0.00412	0.077209	0.009918	-0.003662	-0.065002	0.091858	0.039825	0.01297	0.024567	-0.023193	0.11292	0.02121	0.18433	-0.7898	0.062103	0.46356	-0.027161	-0.04425	-0.31265	-0.024261	0.005493	0.039673	0.056763	-0.057373	0.019379	-0.024872	0.15381	-0.011597	0.50339	0.065308	0.00412	-0.004578
43.002	-0.060883	0.11719	0.009308	0.002136	-0.12619	-0.027008	-0.043182	0.018463	0.082092	-0.041504	0.084381	0.02594	0.043488	-0.54596	0.16342	-0.95947	0.02655	-0.052795	-0.26413	-0.036774	-0.01709	0.003815	0.10574	-0.03418	0.017853	-0.027008	0.016785	-0.007172	0.45822	0.013733	0.003662	-0.005341
43.003	0.095978	0.13199	0.028229	-0.017242	-0.086975	-0.11734	-0.059967	0.028076	0.11551	-0.023956	0.064545	0.014343	-0.10025	-0.25253	0.20416	0.021973	0.019836	-0.001526	-0.23605	-0.039978	-0.016327	0.023804	0.098419	-0.014801	0.022736	-0.018768	-0.43274	-0.004883	0.50781	-0.032654	0.003662	-0.001984
43.004	0.005188	0.13718	0.009308	0.015259	0.013428	-0.11185	0.083618	0.023804	0.12833	0.002747	0.031738	-0.00946	-0.13458	-0.15533	0.46707	-0.17487	-0.033112	0.010986	-0.242	-0.034943	-0.025787	0.037231	0.057373	-0.015106	0.038147	-0.017853	-0.30731	-0.007477	-0.28442	-0.01358	0.003204	0.002594
43.005	-0.016174	0.14084	0.034637	0.004425	0.07019	0.02533	0.17548	0.014038	0.069885	0.000763	0.12421	-0.010071	-0.093231	0.006866	-0.19196	0.52231	-0.057373	-0.008087	-0.26413	-0.062408	-0.053253	0.047302	0.13641	-0.021057	0.020599	-0.013428	0.27023	-0.004272	-0.77896	-0.10437	0.007324	0.002136
43.006	-0.013275	0.19272	0.062408	0.017395	0.033569	0.21515	0.2211	0.018005	0.036621	0.006256	0.16846	-0.003052	-0.031738	0.22415	-0.59143	0.89401	-0.053558	-0.007324	-0.2948	-0.10529	-0.045624	0.074463	0.11734	-0.001068	0.019684	-0.012207	0.31921	-0.007172	-0.39505	-0.17777	0.004425	-0.005493
43.007	-0.005035	0.24445	0.079651	0.017548	0.025177	0.29343	0.20248	0.006256	0.024719	-0.13336	0.009613	0.001373	0.010681	0.25223	-0.64087	-0.37689	-0.040741	0.052338	-0.34195	-0.060425	0.002899	0.056763	0.10971	-0.055695	0.010834	-0.010223	0.082397	-0.006409	-0.021362	-0.068817	0.003052	-0.009155
43.008	-0.003815	0.25742	0.03067	-0.001678	0.00061	0.32242	0.15289	0.009155	0.006866	-0.090179	0.057373	-0.001526	0.01236	0.14236	0.077209	0.25146	-0.048676	0.045013	-0.37399	0.006866	0.013733	0.054321	0.13184	-0.045166	0.013275	-0.016174	-0.004272	-0.004578	-0.51773	-0.045013	0.000916	-0.008087
43.009	0.002747	0.22293	-0.03952	0.001984	-0.003662	0.31464	0.14267	-0.010986	0.037384	-0.080261	-0.11765	-0.002441	0.088654	0.054474	0.070496	0.21057	-0.027466	0.052948	-0.43686	-0.003815	0.017853	0.056	0.1503	-0.037384	0.006409	-0.012207	-0.23972	-0.00412	-0.083923	-0.047913	-0.003357	-0.007019
43.01	-0.006714	0.21271	-0.10834	0.01358	0.02533	0.17609	0.1831	-0.002594	0.027771	-0.14435	-0.23132	-0.005035	0.121	0.006561	-0.031128	-0.031738	-0.001984	0.013275	-0.42038	0.095673	-0.008545	0.03479	0.11551	-0.048676	0.007629	-0.020599	-0.11322	-0.015717	0.10513	-0.053711	0.002594	-0.010681
43.011	-0.003662	0.15854	-0.076904	0.009766	0.016174	0.16373	0.19012	0.012817	0.004883	-0.055389	-0.10223	-0.007019	0.071411	-0.02121	0.058441	-0.036316	0.077972	-0.004578	-0.36682	0.10651	-0.018616	0.001984	0.10712	-0.041504	0.006104	-0.026703	0.073242	-0.007019	0.1503	-0.049744	0.005035	-0.015717
43.012	-0.005035	0.085602	-0.026855	0.00412	-0.007782	0.14053	0.19104	0.015106	0.004883	0.10727	-0.034332	-0.006866	0.061035	-0.15137	-0.0737	-0.084686	0.085144	-0.023346	-0.36392	0.099335	-0.032806	0.00473	0.000305	-0.043182	0.012665	-0.031433	0.014648	-0.007629	0.2742	-0.019836	0.005341	-0.024261
43.013	-0.019073	0.049438	-0.077972	0.011749	-0.13321	-0.17532	0.16083	0.018311	0.042419	0.034637	-0.001984	-0.005035	0.024414	-0.32654	-0.22125	0.057373	0.065765	-0.043945	-0.61157	0.11368	-0.034027	-0.002899	0.024872	-0.067291	0.007782	-0.03067	-0.031891	-0.010681	0.45883	0.03067	0.002441	-0.018616
43.014	-0.011902	0.022125	-0.078888	-0.006561	-0.26047	-0.40039	0.14267	0.016937	0.11017	0.004272	-0.002136	-0.002594	-0.031586	-0.18585	-0.25818	-0.41473	0.022278	-0.030823	-0.93521	0.16159	-0.052948	0.001678	0.067749	-0.070801	0.00473	-0.032349	0.014648	-0.005493	0.43823	0.063782	0.006256	-0.020905
43.015	-0.00351	-0.03479	-0.12405	-0.012054	-0.32822	-0.3125	0.13901	0.006409	0.13825	-0.16159	0.025024	-0.00351	-0.066833	0.036163	-0.1326	0.11704	-0.012512	0.001068	-1.2869	0.11795	-0.009766	0.040588	0.074921	-0.058899	-0.006409	-0.046997	0.03479	-0.000305	0.26688	0.08255	0.00412	-0.016785
43.016	-0.002899	-0.005646	-0.12497	-0.030975	-0.1149	-0.058441	0.17044	0.013885	0.13825	-0.099487	0.00946	-0.003967	-0.011749	0.094452	0.015717	0.076447	-0.029297	0.043335	-1.115	0.021057	-0.03479	0.038452	0.1265	-0.089569	-0.00061	-0.048828	0.090485	-0.007935	-0.046234	0.051422	0.016785	-0.018616
43.017	0.003357	-0.037079	-0.10681	0.007324	0.10666	-0.5426	0.19791	-0.002289	0.11261	-0.013733	-0.012512	-0.001678	0.016174	0.045776	0.070038	0.013428	-0.051575	0.082092	-0.35172	-0.12589	-0.1268	-0.000916	0.12528	-0.055542	0.015564	-0.04425	0.016479	-0.002289	0.020294	-0.031738	0.005493	-0.017548
43.018	0.038452	-0.010834	-0.103	0.011902	0.27466	-0.57297	0.19119	-0.012817	0.019989	0.05127	0.005341	-0.002747	-0.003204	-0.18967	0.052948	0.001984	-0.065155	0.090485	0.29953	-0.13001	0.003357	0.031281	0.10925	-0.051422	0.016327	-0.046997	0.06134	-0.003815	0.019836	-0.033875	0.004425	-0.013123
43.019	0.053558	0.010529	0.021515	0.016479	0.41077	-0.018005	0.23071	-0.003815	-0.09552	0.54123	0.039825	-0.006409	-0.084839	-0.30609	0.095825	0.24597	-0.040588	0.073853	0.12817	-0.012817	0.10635	0.026855	0.14832	-0.10315	0.017395	-0.052185	0.028534	-0.009003	-0.17731	-0.022736	0.00351	-0.007019
43.02	0.019531	-0.088043	-0.12634	0.019531	0.2507	0.48508	0.28778	0.003204	-0.23972	0.75516	0.022888	-0.006409	-0.10407	-0.11124	0.14114	-1.3394	0.038147	-0.051575	0.29633	-0.014038	0.075836	-0.005493	0.09079	-0.13931	0.021057	-0.047455	-0.013123	-0.006866	-0.14679	-0.12192	0.002136	-0.00946
43.021	-0.001984	-0.10407	-0.079803	0.014038	0.050354	0.4541	0.30289	0.018768	-0.27939	0.1918	0.013885	-0.018005	-0.094452	0.26718	0.14832	0.11734	0.11322	0.000916	0.35477	0.016632	0.005951	-0.053101	0.061188	-0.14328	0.012207	-0.055237	-0.006104	-0.003204	0.31204	-0.11475	0.001526	-0.012817
43.022	-0.003357	-0.056915	-0.037994	0.019684	0.011902	0.19104	0.22034	0.030212	-0.21454	-0.22675	0.011139	0.00824	-0.095673	0.51117	0.17044	0.25986	0.16251	-0.033264	-0.04837	0.17593	-0.041199	-0.069427	0.051422	-0.16586	0.015106	-0.06012	-0.009003	-0.008698	0.22598	-0.007324	0.002289	-0.011597
43.023	0.009003	-0.028992	0.09201	0.016937	0.032501	0.036621	0.06897	0.046082	-0.12863	-0.9552	-0.009003	0.002747	-0.028076	0.58823	0.32867	0.20386	0.11536	0.041962	-0.23468	0.079346	0.045471	-0.063477	0.006409	-0.093231	0.02594	-0.059509	0.003815	-0.007782	0.018158	0.070038	0.002899	-0.010681
43.024	0.003815	0.002594	0.21851	-0.01236	0.06546	-0.035706	0.018463	0.035858	-0.002594	-0.71442	-0.004272	-0.018158	0.017548	0.80688	0.13077	0.70984	0.029602	0.13443	-0.016174	-0.026703	0.077972	0.10742	-0.039673	-0.043488	0.026245	-0.06012	0.017853	-0.005188	0.038605	0.053558	0.001526	-0.008698
43.025	-0.000305	-0.023804	0.28015	-0.015564	0.016479	-0.121	0.056305	0.002441	0.16968	-0.18402	0.055695	0.000763	0.044708	0.67001	0.095673	-0.007477	-0.040131	0.14755	0.18219	-0.005798	0.11139	0.15579	-0.075836	-0.009918	0.001526	-0.06012	0.03418	-0.00412	0.19516	0.019836	0.002136	-0.012665
43.026	-0.005646	-0.024567	0.14694	-0.000458	-0.026093	-0.12772	0.103	-0.005341	0.31998	-0.10269	0.21912	-0.000916	0.11047	0.21912	-0.085907	0.046997	-0.075226	0.060425	-0.2858	0.027924	-0.0177	0.035706	-0.050812	0.032196	-0.001221	-0.057068	0.073242	0.004425	0.21088	-0.020752	0.005035	-0.003967
43.027	0.001526	-0.023193	0.12146	-0.00824	0.079193	-0.027466	0.21164	-0.005951	0.37003	-0.11658	0.14877	0.019531	0.12054	-0.31952	-0.2803	-1.5109	-0.092163	-0.016327	-0.50247	0.002136	-0.045776	0.050354	0.012817	0.04776	-0.002441	-0.049896	0.056915	-0.00412	0.15701	-0.039063	0.001984	-0.003815
43.028	0.011597	-0.015564	0.08728	0.008545	0.10086	0.092468	0.2887	-0.011444	0.242	-0.095978	-0.036011	-0.005035	0.047607	-0.45227	0.39246	0.60455	-0.090027	-0.059662	-0.6987	0.076141	-0.013428	0.089111	0.010071	0.10666	0.010681	-0.045166	0.036621	-0.003967	-0.093842	-0.004425	0.001068	-0.022888
43.029	0.00946	-0.013733	0.02594	0.039368	0.089417	0.17975	0.24002	-0.007935	0.016327	-0.059662	-0.17716	-0.006256	0.044403	-0.64163	-0.29785	0.53024	-0.081329	-0.010681	-0.079956	0.09613	0.071564	0.093842	0.070801	0.10941	0.025177	-0.035095	0.040894	-0.004578	-0.25238	-0.010834	0.002441	-0.01709
43.03	0.011597	0.028076	-0.085754	0.010071	0.069122	0.16693	0.1767	-0.006561	-0.13184	0.24719	-0.092926	0.010681	0.093994	-0.7309	0.0177	-1.0117	-0.064087	0.044403	0.13123	0.11414	0.095978	0.077972	0.1358	0.1828	0.028992	-0.007935	0.07019	-0.003967	-0.31845	0.01358	0.003357	-0.007935
43.031	0.008698	0.000153	-0.062256	-0.011749	-0.048828	0.10101	0.21866	-0.000763	-0.28091	0.36468	0.00946	0.012512	0.079041	-0.37857	-0.31387	-0.066681	-0.042267	0.03479	-0.34119	0.10773	0.069122	0.067596	0.16312	0.14435	0.023956	0.024109	0.044861	-0.006714	-0.09491	0.002899	0.001984	-0.016022
43.032	0.011902	0.006714	-0.060577	-0.026245	-0.11185	0.067444	0.2063	-0.005493	-0.19745	0.41824	-0.029297	0.039978	-0.063477	0.1506	-0.11215	1.0814	-0.032043	0.068512	-0.3923	-0.005798	0.015411	0.089417	0.17624	0.064697	0.013275	0.052795	0.014954	-0.006256	0.15381	-0.020447	0.000763	-0.00351
